<?xml version="1.0" encoding="utf-8"?>
<!-- Generator: Adobe Illustrator 26.0.3, SVG Export Plug-In . SVG Version: 6.00 Build 0)  -->
<svg version="1.1" id="Layer_1" xmlns="http://www.w3.org/2000/svg" xmlns:xlink="http://www.w3.org/1999/xlink" x="0px" y="0px"
	 viewBox="0 0 283.5 27.8" style="enable-background:new 0 0 283.5 27.8;" xml:space="preserve">
<style type="text/css">
	.st0{fill:#FFFFFF;}
	.st1{fill:#6E8B3F;}
</style>
<rect class="st0" width="283.5" height="13.8"/>
<rect y="13.9" class="st1" width="283.5" height="13.8"/>
<g>
	<path class="st0" d="M283.5,18.1c0,0-7.3,2.4-14,2.6c-6.8,0.2-12.6,0-20.9-0.8c-11.3-1.1-33.1-5.6-44.7-3.2s-12.1,2.6-18,4.1
		c-6.6,1.8-20,5.3-36.6,5.2c-17.7-0.2-49.8-9.2-63-8.8c-1.4,0.1-6.6,0.4-10.5,1.1c-3.8,0.7-9.4,2.1-17,2.6
		c-3.2,0.2-8.3,0.6-14.2,0.5c-1.5-0.1-6.3-0.2-12-0.9s-11-1.7-15.8-2.1C6.5,17.8,0,18.7,0,18.7v-6h283.5V18.1z M260.8,19
		c-0.7-0.6-2-0.2-4.3-0.2c-2.3,0-6.1-0.7-5.8-0.6s3.1,0.8,6,1.1C259.7,19.5,261.4,19.5,260.8,19z M242.4,17.5c0,0-2.4-0.1-5.6-0.5
		c-3.2-0.4-10.3-1.6-15.1-1.9c-8.2-0.6-15.8,0-15.1,0.1c0.8,0.1,9.6-0.3,17.6,0.6c3.3,0.4,9.3,1.2,12.4,1.5
		C239.9,17.5,242.4,17.5,242.4,17.5z M185.2,17.4c1.7-0.4-13.3,2.6-18.5,3.4c-2.1,0.3-6.2,0.9-10,1.1c-3.9,0.2-8.9,0.2-8.8,0.3
		c0,0.1,5.8,0.4,11.2,0s5.2-0.6,7.6-0.9C170.5,20.9,183.5,17.8,185.2,17.4z M199.1,16.5c0.2,0-0.8-0.2-4.8,0.6s-6.7,1.9-6.9,2.1
		c-0.2,0.1,3.5-1,6.6-1.7C197,16.9,199,16.5,199.1,16.5z M283,16c-0.1,0.1-1.9,0.6-4.8,1.4c-2.9,0.8-6.9,1.6-6.7,1.5
		c0.2,0,3.5-0.3,7.4-1.4C282.8,16.5,283.1,16,283,16z M31.3,19.1c0.1-0.1-1.9-0.1-4.5-0.7s-5.4-0.9-7.8-1.1
		c-4-0.4-11.7,0.1-11.3,0.1c0.3,0.1,8.2-0.2,12.5,0.4c2.2,0.3,2.4,0.3,5.7,0.9S31.2,19.3,31.3,19.1z M73,17.8
		c0.4-0.1,3.5-0.9,8.4-1.4c4.9-0.6,8.9-0.3,8.9-0.4s-1-0.5-6.2-0.2C78.9,16.1,72.6,17.9,73,17.8z M71.6,16.4
		c0.2,0.1,3.4-0.7,5.7-0.9c2.3-0.2,1.9-0.3,1.9-0.3s-1.1-0.1-2.7,0.1C74.8,15.5,71.4,16.4,71.6,16.4z M93.6,15.1
		c0.1,0.1,3.5,0.4,5.6,1c2.1,0.6,1.8,0.3,1.9,0.3s-0.8-0.4-2.4-0.7C97.1,15.4,93.5,15,93.6,15.1z M65.4,18.9
		c-0.1,0.2,0.3,0.3,1.9-0.1c1.6-0.4,2.6-0.7,2.2-0.7s-0.9,0.2-2.5,0.4C65.3,18.7,65.5,18.7,65.4,18.9z M34.5,19.6
		c-0.2,0,2.1,0.4,3.3,0.5c1.2,0.1,2,0.1,2-0.1s-0.1-0.3-1.6-0.2C36.6,19.8,34.7,19.6,34.5,19.6z M152.2,24.4
		c-0.1,0.1-2.4-0.2-7.5-0.2c-5,0-13.6-1.3-17.2-1.9c-3.6-0.6,10,2.2,16.5,2.3C150.5,24.7,152.3,24.3,152.2,24.4z"/>
	<path class="st0" d="M269.6,22.7c-0.1-0.1-4.6,0.2-7.2,0c-7.3-0.4-17-1.8-16.6-1.6c0.4,0.2,13.7,1.7,17,1.8
		C267.7,23.1,269.7,22.7,269.6,22.7z"/>
	<path class="st0" d="M227.4,18.1c-0.2-0.1-4.5-0.6-9.5-0.7c-5-0.1-12.7,0.3-12.3,0.3c0.3-0.1,5.9-1,13.3-0.7
		C226.3,17.4,227.6,18.2,227.4,18.1z"/>
	<path class="st0" d="M204.5,20.1c-0.1-0.1,2-0.6,3.2-0.6s2,0,2,0.2s-0.1,0.3-1.6,0.2C206.4,19.9,204.6,20.2,204.5,20.1z"/>
	<path class="st0" d="M201,18.6c0-0.1-4.4,0.7-6.3,1.2c-1.9,0.5-6.2,1.7-6.1,1.7c0.1,0.1,4.2-0.9,6.3-1.4
		C197,19.5,201,18.6,201,18.6z"/>
	<path class="st0" d="M154.5,27.5c-0.1-0.1-4.6,0.2-7.2,0c-7.3-0.4-17-1.8-16.6-1.6s13.7,1.7,17,1.8C152.6,28,154.6,27.6,154.5,27.5
		z"/>
	<path class="st0" d="M41.9,23.4c0,0,1.2-0.2,2.9-0.1s5.8,0.5,8.2,0.4c4.2-0.2,7.4-1.5,7-1.4c-0.4,0-4.3,1.2-8.6,1.1
		c-1.8-0.1-5.1-0.3-6.7-0.2S41.9,23.4,41.9,23.4z"/>
	<path class="st0" d="M75.5,19.7c0.2,0.1,2-0.4,4.3-0.6c2.3-0.1,2.1-0.2,2.1-0.3c0-0.1-1.8-0.2-3.4,0C76.9,19.1,75.3,19.6,75.5,19.7
		z"/>
	<path class="st0" d="M15.6,20c0-0.1,4.3,0,6.7,0.3c2.4,0.3,5,1.1,5,1.1s-2.7-0.4-5.1-0.8C19.9,20.3,15.7,20.1,15.6,20z"/>
</g>
</svg>
